<svg width="25" height="24" viewBox="0 0 25 24" fill="none" xmlns="http://www.w3.org/2000/svg">
<path d="M20.3333 19V16H7.33334C5.67649 16 4.33334 17.3431 4.33334 19M9.13334 22H17.1333C18.2534 22 18.8135 22 19.2413 21.782C19.6176 21.5903 19.9236 21.2843 20.1154 20.908C20.3333 20.4802 20.3333 19.9201 20.3333 18.8V5.2C20.3333 4.07989 20.3333 3.51984 20.1154 3.09202C19.9236 2.71569 19.6176 2.40973 19.2413 2.21799C18.8135 2 18.2534 2 17.1333 2H9.13334C7.45319 2 6.61311 2 5.97137 2.32698C5.40689 2.6146 4.94794 3.07354 4.66032 3.63803C4.33334 4.27976 4.33334 5.11984 4.33334 6.8V17.2C4.33334 18.8802 4.33334 19.7202 4.66032 20.362C4.94794 20.9265 5.40689 21.3854 5.97137 21.673C6.61311 22 7.45319 22 9.13334 22Z" stroke="#007AFF" stroke-width="2" stroke-linecap="round" stroke-linejoin="round"/>
</svg>
