<svg width="21" height="19" viewBox="0 0 21 19" fill="none" xmlns="http://www.w3.org/2000/svg">
<path d="M19.6663 9.5C19.6663 14.1944 15.8607 18 11.1663 18C10.0895 18 9.05946 17.7998 8.11141 17.4345C7.93807 17.3678 7.8514 17.3344 7.78248 17.3185C7.7147 17.3029 7.66562 17.2963 7.59611 17.2937C7.52543 17.291 7.4479 17.299 7.29281 17.315L2.17179 17.8444C1.68355 17.8948 1.43943 17.9201 1.29542 17.8322C1.17 17.7557 1.08457 17.6279 1.06183 17.4828C1.03572 17.3161 1.15238 17.1002 1.38569 16.6684L3.02134 13.6408C3.15605 13.3915 3.2234 13.2668 3.2539 13.1469C3.28403 13.0286 3.29132 12.9432 3.28168 12.8214C3.27192 12.6981 3.21782 12.5376 3.10962 12.2166C2.8221 11.3636 2.66625 10.45 2.66625 9.5C2.66625 4.80558 6.47183 1 11.1663 1C15.8607 1 19.6663 4.80558 19.6663 9.5Z" stroke="#007AFF" stroke-width="2" stroke-linecap="round" stroke-linejoin="round"/>
</svg>
